# xmcd
#
# Track frame offsets:
#	150
#	20007
#	50012
#	67251
#	117790
#	138006
#	147836
#	164585
#	178503
#	219889
#	244353
#
# Disc length: 3361 seconds
#
# Revision: 0
# Processed by: cddbd v1.5.2PL0 Copyright (c) Steve Scherf et al.
# Submitted via: audiograbber 1.83.01
#
DISCID=a30d1f0b
DTITLE=ISM - Demo 2007
DYEAR=2007
DGENRE=Rock
TTITLE0=Simon says
TTITLE1=Clowny clouds
TTITLE2=Random
TTITLE3=zZz
TTITLE4=Teslanol (live)
TTITLE5=Simon says (live)
TTITLE6=Bonjour Tristesse (live)
TTITLE7=Rock 'n' Roll N*2 (live)
TTITLE8=Clowny clouds - Random (live)
TTITLE9=Attitude
TTITLE10=Fuck you
EXTD=
EXTT0=
EXTT1=
EXTT2=
EXTT3=
EXTT4=
EXTT5=
EXTT6=
EXTT7=
EXTT8=
EXTT9=
EXTT10=
PLAYORDER=
